<?xml version="1.0" encoding="UTF-8"?>
<svg version="1.1" xmlns="http://www.w3.org/2000/svg" width="64" height="64">
<path d="M0 0 C2.03350255 1.00577364 3.30375693 2.17853189 4.78637695 3.88354492 C3.25366148 7.53386217 1.06483818 9.82294243 -1.7487793 12.57885742 C-2.64016602 13.45928711 -3.53155273 14.3397168 -4.44995117 15.24682617 C-5.38258789 16.15819336 -6.31522461 17.06956055 -7.27612305 18.00854492 C-9.12334472 19.82144107 -10.96850725 21.63643851 -12.8112793 23.45385742 C-13.63120361 24.25581543 -14.45112793 25.05777344 -15.29589844 25.8840332 C-17.26508645 27.73950853 -17.26508645 27.73950853 -18.21362305 29.88354492 C-20.57326578 29.47670997 -22.07296392 28.98540153 -24.02612305 27.57104492 C-25.21362305 25.88354492 -25.21362305 25.88354492 -25.0859375 24.10546875 C-23.18633732 19.26688459 -18.60227785 15.75507216 -14.95849609 12.12744141 C-13.40277357 10.57269441 -11.86961438 8.99782539 -10.33666992 7.4206543 C-9.35294673 6.43172638 -8.36796215 5.44405129 -7.3815918 4.45776367 C-6.48722412 3.55630615 -5.59285645 2.65484863 -4.67138672 1.72607422 C-2.21362305 -0.11645508 -2.21362305 -0.11645508 0 0 Z " fill="#E5E5E6" transform="translate(40.213623046875,21.116455078125)"/>
<path d="M0 0 C3.71860179 1.53873177 4.35633541 2.47511388 7 6 C-0.92 13.92 -8.84 21.84 -17 30 C-21 28 -21 28 -21.90625 25.5859375 C-22 23 -22 23 -21.09375 21.2890625 C-20.30484375 20.46535156 -20.30484375 20.46535156 -19.5 19.625 C-18.86964844 18.95726563 -18.23929688 18.28953125 -17.58984375 17.6015625 C-16.30787109 16.31378906 -16.30787109 16.31378906 -15 15 C-14.4033252 14.39639648 -13.80665039 13.79279297 -13.19189453 13.17089844 C-8.82188348 8.75288872 -4.42168619 4.36625521 0 0 Z " fill="#E6E7E7" transform="translate(36,10)"/>
<path d="M0 0 C3.875 1.71875 3.875 1.71875 5 4.25 C5 10.36484917 -0.09976712 14.22318961 -4.125 18.3125 C-9.7780658 23.92362911 -9.7780658 23.92362911 -14 24.1875 C-17 24 -17 24 -19 22 C-18.74494526 18.14831853 -16.6297207 16.28084544 -13.96484375 13.671875 C-12.75151367 12.47304688 -12.75151367 12.47304688 -11.51367188 11.25 C-10.66353516 10.425 -9.81339844 9.6 -8.9375 8.75 C-8.08349609 7.90953125 -7.22949219 7.0690625 -6.34960938 6.203125 C-4.23964588 4.12852403 -2.12300292 2.06124168 0 0 Z " fill="#D6D8DA" transform="translate(45,27)"/>
<path d="M0 0 C3.875 1.75 3.875 1.75 5 4 C4.43901611 3.75040527 3.87803223 3.50081055 3.30004883 3.24365234 C0.8446654 2.72659027 0.8446654 2.72659027 -1.3059082 4.64306641 C-3.99092935 7.28893811 -6.66819813 9.93831559 -9.3125 12.625 C-10.25673828 13.54152344 -11.20097656 14.45804688 -12.17382812 15.40234375 C-13.06134766 16.29308594 -13.94886719 17.18382813 -14.86328125 18.1015625 C-15.68094971 18.91963379 -16.49861816 19.73770508 -17.34106445 20.58056641 C-19.28582386 22.88152488 -19.28582386 22.88152488 -18.82104492 25.68115234 C-18.05896232 27.98460451 -18.05896232 27.98460451 -17 30 C-18.9375 29.3125 -18.9375 29.3125 -21 28 C-21.78515625 25.62890625 -21.78515625 25.62890625 -22 23 C-21.09375 21.2890625 -21.09375 21.2890625 -19.5 19.625 C-18.86964844 18.95726563 -18.23929688 18.28953125 -17.58984375 17.6015625 C-16.30787109 16.31378906 -16.30787109 16.31378906 -15 15 C-14.4033252 14.39639648 -13.80665039 13.79279297 -13.19189453 13.17089844 C-8.82188348 8.75288872 -4.42168619 4.36625521 0 0 Z " fill="#D7D8DC" transform="translate(36,10)"/>
<path d="M0 0 C2.007703 1.0273836 3.2958555 2.2101557 4.77050781 3.90600586 C4.44050781 4.56600586 4.11050781 5.22600586 3.77050781 5.90600586 C2.78050781 4.91600586 1.79050781 3.92600586 0.77050781 2.90600586 C-2.99553088 4.46883568 -5.3658837 6.81235336 -8.21386719 9.69506836 C-8.90455292 10.38999893 -8.90455292 10.38999893 -9.60919189 11.09896851 C-11.07074297 12.57166484 -12.52516387 14.05117989 -13.97949219 15.53100586 C-14.9725183 16.53406908 -15.96600308 17.53667843 -16.95996094 18.53881836 C-19.38847159 20.98931421 -21.81063894 23.44597256 -24.22949219 25.90600586 C-24.55949219 24.91600586 -24.88949219 23.92600586 -25.22949219 22.90600586 C-22.04316845 19.59622537 -18.84086447 16.30310545 -15.62255859 13.02441406 C-14.52977617 11.90646354 -13.44152015 10.78407002 -12.35791016 9.65722656 C-10.80071875 8.03948563 -9.22802173 6.43834871 -7.65136719 4.83959961 C-7.16891541 4.3313414 -6.68646362 3.82308319 -6.18939209 3.29942322 C-2.77574646 -0.11702391 -2.77574646 -0.11702391 0 0 Z " fill="#D4D6DA" transform="translate(40.2294921875,21.093994140625)"/>
<path d="M0 0 C0.99 0.33 1.98 0.66 3 1 C-0.3 4.3 -3.6 7.6 -7 11 C-7.33 10.01 -7.66 9.02 -8 8 C-5.36 5.36 -2.72 2.72 0 0 Z " fill="#E1E3E6" transform="translate(35,37)"/>
</svg>
