<svg xmlns="http://www.w3.org/2000/svg" xmlns:xlink="http://www.w3.org/1999/xlink" width="380" height="86.047" viewBox="0 0 380 86.047">
  <defs>
    <filter id="Trazado_10790" x="47.379" y="0" width="264.351" height="66.32" filterUnits="userSpaceOnUse">
      <feOffset dy="3" input="SourceAlpha"/>
      <feGaussianBlur stdDeviation="3" result="blur"/>
      <feFlood flood-opacity="0.302"/>
      <feComposite operator="in" in2="blur"/>
      <feComposite in="SourceGraphic"/>
    </filter>
    <filter id="Trazado_10791" x="236.672" y="23.571" width="31.176" height="32.407" filterUnits="userSpaceOnUse">
      <feOffset dy="3" input="SourceAlpha"/>
      <feGaussianBlur stdDeviation="3" result="blur-2"/>
      <feFlood flood-opacity="0.302"/>
      <feComposite operator="in" in2="blur-2"/>
      <feComposite in="SourceGraphic"/>
    </filter>
    <linearGradient id="linear-gradient" x1="1.309" y1="-2.342" x2="2.459" y2="4.128" gradientUnits="objectBoundingBox">
      <stop offset="0"/>
      <stop offset="0.454" stop-color="#fff"/>
      <stop offset="1"/>
    </linearGradient>
    <filter id="Rectángulo_2584" x="2.504" y="16.743" width="32.353" height="32.353" filterUnits="userSpaceOnUse">
      <feOffset dx="0.5" dy="0.5" input="SourceAlpha"/>
      <feGaussianBlur stdDeviation="0.125" result="blur-3"/>
      <feFlood flood-color="#d1d1d1"/>
      <feComposite operator="in" in2="blur-3"/>
      <feComposite in="SourceGraphic"/>
    </filter>
    <filter id="Rectángulo_2585" x="14.308" y="23.897" width="27.703" height="27.703" filterUnits="userSpaceOnUse">
      <feOffset dx="0.5" dy="0.5" input="SourceAlpha"/>
      <feGaussianBlur stdDeviation="0.125" result="blur-4"/>
      <feFlood flood-color="#d1d1d1"/>
      <feComposite operator="in" in2="blur-4"/>
      <feComposite in="SourceGraphic"/>
    </filter>
    <filter id="Rectángulo_2586" x="0" y="4.939" width="32.353" height="32.353" filterUnits="userSpaceOnUse">
      <feOffset dx="0.5" dy="0.5" input="SourceAlpha"/>
      <feGaussianBlur stdDeviation="0.125" result="blur-5"/>
      <feFlood flood-color="#d1d1d1"/>
      <feComposite operator="in" in2="blur-5"/>
      <feComposite in="SourceGraphic"/>
    </filter>
  </defs>
  <g id="SP_PRO_logo" transform="translate(-54.994 -354.372)">
    <text id="Create_an_account" data-name="Create an account" transform="translate(303.843 435.419)" fill="#7849de" font-size="20" font-family="Lato, sans-serif" font-weight="500" font-style="italic" letter-spacing="0.013em"><tspan x="0" y="0">ALL-ACCESS</tspan></text>
    <line id="Línea_1" data-name="Línea 1" x2="223.392" transform="translate(64.487 430.353)" fill="none" stroke="#fff" stroke-width="0.5" opacity="1"/>
    <g id="new_SP_icon_logo_trial" data-name="new_SP_icon+logo_trial" transform="translate(50.344 359.312)">
      <g id="Grupo_8066" data-name="Grupo 8066" transform="translate(61.029 1.061)">
        <g transform="matrix(1, 0, 0, 1, -56.38, -6)" filter="url(#Trazado_10790)">
          <path id="Trazado_10790-2" data-name="Trazado 10790" d="M13.51-1.312A13.127,13.127,0,0,1,6.153-3.369a10.9,10.9,0,0,1-4.4-5.565L6.115-11a9.214,9.214,0,0,0,3.066,3.71A7.4,7.4,0,0,0,13.51-5.931a5.431,5.431,0,0,0,3.281-.921,2.9,2.9,0,0,0,1.262-2.461,2.392,2.392,0,0,0-.555-1.641,4.347,4.347,0,0,0-1.388-1.035,9.363,9.363,0,0,0-1.691-.631L10.128-13.83a10.572,10.572,0,0,1-5.3-3.041,7.082,7.082,0,0,1-1.741-4.757,7.45,7.45,0,0,1,1.262-4.316A8.333,8.333,0,0,1,7.831-28.81a11.88,11.88,0,0,1,5.022-1.022,12.245,12.245,0,0,1,6.663,1.842,9.959,9.959,0,0,1,4.139,5.149l-4.417,2.07a6.737,6.737,0,0,0-2.549-3.155,6.9,6.9,0,0,0-3.912-1.161,4.6,4.6,0,0,0-2.965.883,2.81,2.81,0,0,0-1.1,2.3,2.465,2.465,0,0,0,.5,1.59,3.609,3.609,0,0,0,1.312,1.01,11.691,11.691,0,0,0,1.666.631l4.442,1.312a10.922,10.922,0,0,1,5.186,3.016,7.045,7.045,0,0,1,1.83,4.884,7.22,7.22,0,0,1-1.287,4.24A8.547,8.547,0,0,1,18.81-2.347,12.676,12.676,0,0,1,13.51-1.312Zm12.468-.606V-29.226h5.679V-1.918Zm0-31.044v-3.385a3.055,3.055,0,0,1,1.054-2.314,4.253,4.253,0,0,1,2.745-.862h1.88v6.562ZM47.632-1.312a13.274,13.274,0,0,1-7.016-1.88,13.519,13.519,0,0,1-4.9-5.123,14.75,14.75,0,0,1-1.792-7.256,14.628,14.628,0,0,1,1.8-7.281,13.7,13.7,0,0,1,4.9-5.1,13.162,13.162,0,0,1,6.978-1.88A12.325,12.325,0,0,1,53.4-28.507a10.221,10.221,0,0,1,4,3.647l-.883,1.287V-40.129h5.679V-1.918H56.769V-7.47l.656,1.06A9.367,9.367,0,0,1,53.4-2.624,12.662,12.662,0,0,1,47.632-1.312Zm.555-5.3a7.975,7.975,0,0,0,4.278-1.161,8.225,8.225,0,0,0,2.966-3.193,9.622,9.622,0,0,0,1.085-4.606,9.622,9.622,0,0,0-1.085-4.606,8.225,8.225,0,0,0-2.966-3.193,7.975,7.975,0,0,0-4.278-1.161,7.993,7.993,0,0,0-4.278,1.174,8.209,8.209,0,0,0-2.978,3.18,9.62,9.62,0,0,0-1.073,4.606,9.714,9.714,0,0,0,1.073,4.606A8.1,8.1,0,0,0,43.9-7.773,8.04,8.04,0,0,0,48.188-6.612Zm30.185,5.3A13.737,13.737,0,0,1,71.142-3.2a13.312,13.312,0,0,1-4.909-5.149,15.043,15.043,0,0,1-1.767-7.294,14.754,14.754,0,0,1,1.779-7.307,13.4,13.4,0,0,1,4.821-5.035,12.963,12.963,0,0,1,6.852-1.842,13.576,13.576,0,0,1,5.515,1.06,11.89,11.89,0,0,1,4.089,2.915,13,13,0,0,1,2.562,4.227,14.276,14.276,0,0,1,.883,5.022q0,.656-.063,1.363a8.553,8.553,0,0,1-.215,1.312H68.933v-4.543H87.458l-2.7,2.07a7.491,7.491,0,0,0-.341-4.417A6.78,6.78,0,0,0,81.893-23.9a7,7,0,0,0-3.975-1.136A7.321,7.321,0,0,0,73.893-23.9a7.339,7.339,0,0,0-2.738,3.243A10.4,10.4,0,0,0,70.4-15.6a9.157,9.157,0,0,0,.8,4.858A7.575,7.575,0,0,0,74.12-7.508a8.173,8.173,0,0,0,4.3,1.148A7.662,7.662,0,0,0,82.65-7.47a8.451,8.451,0,0,0,2.764-2.877l4.644,2.3a9.634,9.634,0,0,1-2.511,3.445A12.726,12.726,0,0,1,83.509-2.2,14.4,14.4,0,0,1,78.373-1.312ZM94.2,7.051c-1.06-.926-1.045-3.277-1.045-3.277l.084-33h5.426v5.653l-.631-1.287a10.433,10.433,0,0,1,4.013-3.647,12.249,12.249,0,0,1,5.78-1.325,13.162,13.162,0,0,1,6.978,1.88,13.7,13.7,0,0,1,4.9,5.1,14.628,14.628,0,0,1,1.8,7.281,14.75,14.75,0,0,1-1.792,7.256,13.551,13.551,0,0,1-4.884,5.123,13.256,13.256,0,0,1-7.029,1.88,12.584,12.584,0,0,1-5.754-1.312A9.54,9.54,0,0,1,98.008-6.41l.909-1.06V8.178H96.83A5.625,5.625,0,0,1,94.2,7.051ZM107.245-6.612a8.022,8.022,0,0,0,4.3-1.161,8.133,8.133,0,0,0,2.953-3.193,9.714,9.714,0,0,0,1.073-4.606,9.62,9.62,0,0,0-1.073-4.606,8.272,8.272,0,0,0-2.953-3.18,7.956,7.956,0,0,0-4.3-1.174,7.993,7.993,0,0,0-4.265,1.161A8.194,8.194,0,0,0,100-20.178a9.622,9.622,0,0,0-1.085,4.606A9.622,9.622,0,0,0,100-10.966a8.194,8.194,0,0,0,2.978,3.193A7.994,7.994,0,0,0,107.245-6.612Zm29.705,5.3a14.253,14.253,0,0,1-7.206-1.855,13.984,13.984,0,0,1-5.161-5.086,14.109,14.109,0,0,1-1.918-7.344,14.047,14.047,0,0,1,1.905-7.319,13.976,13.976,0,0,1,5.136-5.06,14.282,14.282,0,0,1,7.243-1.855,14.29,14.29,0,0,1,7.231,1.842,13.811,13.811,0,0,1,5.111,5.048,14.168,14.168,0,0,1,1.893,7.344,14.086,14.086,0,0,1-1.931,7.37,14.042,14.042,0,0,1-5.149,5.073A14.143,14.143,0,0,1,136.951-1.312Zm0-5.3a7.911,7.911,0,0,0,4.265-1.161,8.235,8.235,0,0,0,2.953-3.205,9.7,9.7,0,0,0,1.085-4.619,9.475,9.475,0,0,0-1.085-4.581,8.4,8.4,0,0,0-2.953-3.18,7.847,7.847,0,0,0-4.265-1.174,7.91,7.91,0,0,0-4.278,1.174,8.464,8.464,0,0,0-2.978,3.18,9.387,9.387,0,0,0-1.1,4.581,9.606,9.606,0,0,0,1.1,4.619,8.3,8.3,0,0,0,2.978,3.205A7.975,7.975,0,0,0,136.951-6.612Zm29.453,5.3a13.893,13.893,0,0,1-7.231-1.88,13.653,13.653,0,0,1-5-5.123,14.608,14.608,0,0,1-1.83-7.307,14.547,14.547,0,0,1,1.817-7.281,13.4,13.4,0,0,1,5-5.073,14.107,14.107,0,0,1,7.243-1.855,13.748,13.748,0,0,1,5.224.984,13.213,13.213,0,0,1,4.215,2.7,10.4,10.4,0,0,1,2.625,4.013l-5,2.3a7.411,7.411,0,0,0-2.738-3.407,7.477,7.477,0,0,0-4.328-1.287,7.71,7.71,0,0,0-4.164,1.148,8.044,8.044,0,0,0-2.9,3.18,9.865,9.865,0,0,0-1.06,4.631,9.809,9.809,0,0,0,1.06,4.606,8.137,8.137,0,0,0,2.9,3.193A7.647,7.647,0,0,0,166.4-6.612a10.925,10.925,0,0,0,5.25-.91,38.923,38.923,0,0,0,9.086-5.038l5.242,2.674c-.538,1.464-4.047,2.3-5.242,3.461a23.027,23.027,0,0,1-7.66,3.936A20.433,20.433,0,0,1,166.4-1.312Zm14.335-.606.05-34.09a3.577,3.577,0,0,1,1.43-2.985,4.212,4.212,0,0,1,3.073-1.136h1.126v25.617l-2.221-.58,13.679-14.134h7.117L194.7-18.247l-10.07,9.969,1.792-3.761V-1.918Zm37.63.606A13.736,13.736,0,0,1,211.139-3.2a13.312,13.312,0,0,1-4.909-5.149,15.043,15.043,0,0,1-1.767-7.294,14.754,14.754,0,0,1,1.779-7.307,13.4,13.4,0,0,1,4.821-5.035,12.963,12.963,0,0,1,6.852-1.842,13.576,13.576,0,0,1,5.515,1.06,11.891,11.891,0,0,1,4.089,2.915,13.005,13.005,0,0,1,2.562,4.227,14.277,14.277,0,0,1,.883,5.022q0,.656-.063,1.363a8.549,8.549,0,0,1-.215,1.312H208.93v-4.543h18.525l-2.7,2.07a7.491,7.491,0,0,0-.341-4.417A6.78,6.78,0,0,0,221.89-23.9a7,7,0,0,0-3.975-1.136A7.321,7.321,0,0,0,213.89-23.9a7.338,7.338,0,0,0-2.738,3.243,10.4,10.4,0,0,0-.757,5.06,9.157,9.157,0,0,0,.795,4.858,7.575,7.575,0,0,0,2.928,3.231,8.173,8.173,0,0,0,4.3,1.148,7.662,7.662,0,0,0,4.227-1.111,8.451,8.451,0,0,0,2.764-2.877l4.644,2.3a9.634,9.634,0,0,1-2.511,3.445,12.726,12.726,0,0,1-4.038,2.41A14.4,14.4,0,0,1,218.369-1.312Zm26.677-.3a8.918,8.918,0,0,1-6.676-2.41,9.314,9.314,0,0,1-2.36-6.8V-24.052H231.19v-5.174h.757a3.989,3.989,0,0,0,2.991-1.1,4.131,4.131,0,0,0,1.073-3.016v-2.145h5.679v6.259H247.9v5.174H241.69v12.973a5.631,5.631,0,0,0,.454,2.372,3.18,3.18,0,0,0,1.476,1.514,5.721,5.721,0,0,0,2.637.53q.379,0,.883-.05t.959-.1v4.9q-.681.126-1.54.215A14.993,14.993,0,0,1,245.046-1.615Z" transform="translate(54.63 46.14)" fill="#fff"/>
        </g>
        <g transform="matrix(1, 0, 0, 1, -56.38, -6)" filter="url(#Trazado_10791)">
          <path id="Trazado_10791-2" data-name="Trazado 10791" d="M315.7-1.391l9.218,14.407h-6.562L311.744,2.882Z" transform="translate(-66.07 30.96)" fill="#fff"/>
        </g>
      </g>
      <g id="Grupo_8067" data-name="Grupo 8067" transform="translate(30.762 0) rotate(45)">
        <g transform="matrix(0.71, -0.71, 0.71, 0.71, -21.96, 14.97)" filter="url(#Rectángulo_2584)">
          <rect id="Rectángulo_2584-2" data-name="Rectángulo 2584" width="7.588" height="36.928" transform="translate(28.62 16.74) rotate(45)" fill="url(#linear-gradient)"/>
        </g>
        <g transform="matrix(0.71, -0.71, 0.71, 0.71, -21.96, 14.97)" filter="url(#Rectángulo_2585)">
          <path id="Rectángulo_2585-2" data-name="Rectángulo 2585" d="M0,0H0A7.588,7.588,0,0,1,7.588,7.588V22.764A7.588,7.588,0,0,1,0,30.352H0a0,0,0,0,1,0,0V0A0,0,0,0,1,0,0Z" transform="translate(35.77 23.9) rotate(45)" fill="url(#linear-gradient)"/>
        </g>
        <g transform="matrix(0.71, -0.71, 0.71, 0.71, -21.96, 14.97)" filter="url(#Rectángulo_2586)">
          <path id="Rectángulo_2586-2" data-name="Rectángulo 2586" d="M0,0H7.588a0,0,0,0,1,0,0V36.928a0,0,0,0,1,0,0h0A7.588,7.588,0,0,1,0,29.34V0A0,0,0,0,1,0,0Z" transform="translate(26.11 4.94) rotate(45)" fill="url(#linear-gradient)"/>
        </g>
      </g>
    </g>
  </g>
</svg>
